<svg width="217" height="188" viewBox="0 0 217 188" xmlns="http://www.w3.org/2000/svg"><mask id="satori_om-id"><rect x="0" y="0" width="217" height="188" fill="#fff"/></mask><rect x="0" y="0" width="217" height="188" fill="#fff"/><clipPath id="satori_cp-id-0"><rect x="71" y="32" width="75" height="65"/></clipPath><mask id="satori_om-id-0"><rect x="71" y="32" width="75" height="65" fill="#fff"/></mask><image x="71" y="32" width="75" height="65" href="data:image/svg+xml;utf8,%3Csvg  fill=%22%2309233c%22 xmlns=%22http://www.w3.org/2000/svg%22 width=%22NaN%22 height=%22null%22 viewBox=%220 0 75 65%22%3E%3Cpath d=%22M37.59.25l36.95 64H.64l36.95-64z%22%3E%3C/path%3E%3C/svg%3E" preserveAspectRatio="none" clip-path="url(#satori_cp-id-0)" mask="url(#satori_om-id-0)"/><mask id="satori_om-id-0-0"><rect x="71" y="32" width="0" height="65" fill="#fff"/></mask><mask id="satori_om-id-1"><rect x="24" y="117" width="169" height="39" fill="#fff"/></mask><path fill="black" d="M34.5 148L29.4 148L24.6 130.5L29.5 130.5L32.2 142.3L32.4 142.3L35.2 130.5L40.0 130.5L42.9 142.2L43.0 142.2L45.7 130.5L50.6 130.5L45.8 148L40.7 148L37.7 137.0L37.5 137.0L34.5 148ZM58.1 148.3L58.1 148.3Q56.4 148.3 55.1 147.7Q53.8 147.2 53.1 146.0Q52.3 144.9 52.3 143.1L52.3 143.1Q52.3 141.7 52.9 140.7Q53.4 139.7 54.3 139.1Q55.2 138.5 56.4 138.2Q57.6 137.9 58.9 137.8L58.9 137.8Q60.4 137.6 61.3 137.4Q62.3 137.3 62.7 137.0Q63.1 136.7 63.1 136.2L63.1 136.2L63.1 136.1Q63.1 135.0 62.4 134.4Q61.8 133.9 60.5 133.9L60.5 133.9Q59.2 133.9 58.4 134.4Q57.7 135 57.4 135.9L57.4 135.9L52.9 135.5Q53.3 133.9 54.3 132.7Q55.3 131.6 56.9 130.9Q58.4 130.3 60.5 130.3L60.5 130.3Q62.0 130.3 63.3 130.7Q64.7 131 65.7 131.7Q66.7 132.4 67.3 133.6Q67.9 134.7 67.9 136.2L67.9 136.2L67.9 148L63.4 148L63.4 145.6L63.2 145.6Q62.8 146.4 62.1 147.0Q61.4 147.6 60.4 148.0Q59.4 148.3 58.1 148.3ZM59.5 145.0L59.5 145.0Q60.6 145.0 61.4 144.6Q62.2 144.1 62.7 143.4Q63.1 142.7 63.1 141.8L63.1 141.8L63.1 139.9Q62.9 140.1 62.5 140.2Q62.1 140.3 61.6 140.4Q61.1 140.5 60.7 140.6Q60.2 140.6 59.8 140.7L59.8 140.7Q58.9 140.8 58.3 141.1Q57.6 141.4 57.3 141.8Q56.9 142.3 56.9 143.0L56.9 143.0Q56.9 144.0 57.7 144.5Q58.4 145.0 59.5 145.0ZM82.2 130.5L87.3 130.5L81.2 148L75.8 148L69.7 130.5L74.8 130.5L78.4 143.0L78.6 143.0L82.2 130.5ZM101.0 130.5L106.1 130.5L100.0 148L94.5 148L88.4 130.5L93.5 130.5L97.2 143.0L97.4 143.0L101.0 130.5ZM111.6 154.5L111.6 154.5Q110.6 154.5 109.8 154.4Q109.0 154.3 108.5 154.0L108.5 154.0L109.6 150.4Q110.5 150.7 111.1 150.7Q111.8 150.7 112.3 150.4Q112.8 150.1 113.2 149.2L113.2 149.2L113.4 148.5L107.2 130.5L112.3 130.5L115.9 143.4L116.1 143.4L119.7 130.5L124.8 130.5L118.1 149.9Q117.6 151.3 116.7 152.3Q115.9 153.4 114.6 154.0Q113.4 154.5 111.6 154.5ZM144.8 131.4L140.0 131.4Q139.9 130.0 138.9 129.3Q137.8 128.5 136.1 128.5L136.1 128.5Q134.9 128.5 134.0 128.9Q133.2 129.2 132.8 129.8Q132.3 130.4 132.3 131.1L132.3 131.1Q132.3 131.8 132.6 132.2Q132.9 132.7 133.4 133.0Q133.9 133.4 134.6 133.6Q135.2 133.8 136 134.0L136 134.0L138.1 134.5Q139.6 134.9 140.9 135.4Q142.2 136.0 143.1 136.8Q144.0 137.6 144.5 138.8Q145.1 139.9 145.1 141.4L145.1 141.4Q145.1 143.5 144.0 145.1Q142.9 146.6 140.9 147.5Q138.9 148.3 136.0 148.3L136.0 148.3Q133.2 148.3 131.1 147.5Q129.0 146.6 127.9 144.9Q126.7 143.2 126.7 140.7L126.7 140.7L131.4 140.7Q131.5 141.9 132.1 142.6Q132.7 143.4 133.7 143.8Q134.7 144.2 136.0 144.2L136.0 144.2Q137.2 144.2 138.2 143.8Q139.1 143.5 139.6 142.8Q140.1 142.2 140.1 141.3L140.1 141.3Q140.1 140.6 139.6 140.0Q139.2 139.5 138.3 139.1Q137.4 138.7 136.1 138.4L136.1 138.4L133.6 137.8Q130.7 137.1 129.0 135.6Q127.3 134.0 127.3 131.5L127.3 131.5Q127.3 129.3 128.4 127.8Q129.5 126.2 131.5 125.3Q133.5 124.4 136.1 124.4L136.1 124.4Q138.7 124.4 140.6 125.3Q142.6 126.2 143.6 127.8Q144.7 129.3 144.8 131.4L144.8 131.4ZM156.2 148.3L156.2 148.3Q153.5 148.3 151.6 147.2Q149.7 146.1 148.6 144.1Q147.6 142.0 147.6 139.3L147.6 139.3Q147.6 136.6 148.6 134.6Q149.7 132.6 151.6 131.4Q153.5 130.3 156.2 130.3L156.2 130.3Q158.8 130.3 160.7 131.4Q162.7 132.6 163.7 134.6Q164.8 136.6 164.8 139.3L164.8 139.3Q164.8 142.0 163.7 144.1Q162.7 146.1 160.7 147.2Q158.8 148.3 156.2 148.3ZM156.2 144.6L156.2 144.6Q157.4 144.6 158.2 143.9Q159 143.2 159.4 142.0Q159.8 140.8 159.8 139.3L159.8 139.3Q159.8 137.8 159.4 136.6Q159 135.4 158.2 134.7Q157.4 134.0 156.2 134.0L156.2 134.0Q155.0 134.0 154.1 134.7Q153.3 135.4 152.9 136.6Q152.5 137.8 152.5 139.3L152.5 139.3Q152.5 140.8 152.9 142.0Q153.3 143.2 154.1 143.9Q155.0 144.6 156.2 144.6ZM172.8 148L167.9 148L167.9 130.5L172.6 130.5L172.6 133.6L172.8 133.6Q173.3 132.0 174.4 131.1Q175.5 130.3 177.0 130.3L177.0 130.3Q177.3 130.3 177.8 130.3Q178.2 130.4 178.5 130.5L178.5 130.5L178.5 134.8Q178.2 134.7 177.6 134.6Q177.0 134.5 176.5 134.5L176.5 134.5Q175.4 134.5 174.6 135.0Q173.7 135.4 173.2 136.2Q172.8 137.1 172.8 138.1L172.8 138.1L172.8 148ZM180.6 130.5L191.1 130.5L191.1 134.2L180.6 134.2L180.6 130.5ZM183.0 143.3L183.0 126.4L187.9 126.4L187.9 142.6Q187.9 143.3 188.1 143.7Q188.3 144.0 188.6 144.2Q189.0 144.3 189.5 144.3L189.5 144.3Q189.8 144.3 190.2 144.3Q190.5 144.2 190.7 144.2L190.7 144.2L191.5 147.8Q191.1 147.9 190.4 148.1Q189.8 148.2 188.8 148.2L188.8 148.2Q187.1 148.3 185.8 147.8Q184.5 147.2 183.7 146.1Q183.0 145.0 183.0 143.3L183.0 143.3Z "/></svg>